<svg xmlns="http://www.w3.org/2000/svg" id="Layer_1" data-name="Layer 1" viewBox="0 0 279.66 343.86"><defs><style>.cls-1{fill:#4e91ef}.cls-2{fill:#2d5389}.cls-3{fill:#396aaf}.cls-4{fill:#fcbc56}.cls-5{fill:#a3a3a3}</style></defs><rect width="103.07" height="24.88" x="148.74" y="272.19" class="cls-1" transform="translate(424.74 44.95) rotate(90)"/><rect width="103.07" height="12.44" x="154.96" y="287.3" class="cls-2" transform="translate(439.84 47.62) rotate(90)"/><path d="M333.45,72.27H66.55A133,133,0,0,0,60.17,113c0,75.14,62.6,136.05,139.83,136.05s139.83-60.91,139.83-136A133,133,0,0,0,333.45,72.27ZM200.19,224.42c-68.43,0-123.91-47.88-123.91-106.94a93.74,93.74,0,0,1,5.66-32h236.5a93.74,93.74,0,0,1,5.65,32.05C324.09,176.54,268.62,224.42,200.19,224.42Z" class="cls-3" transform="translate(-60.17 -39.4)"/><path d="M332.56,72.27H199.39V85.43H317.55a93.74,93.74,0,0,1,5.65,32.05c0,59-55.42,106.9-123.81,106.94v24.67c77.1-.15,139.55-61,139.55-136A133,133,0,0,0,332.56,72.27Z" class="cls-2" transform="translate(-60.17 -39.4)"/><rect width="138.61" height="12.44" x="70.53" y="331.42" class="cls-2"/><rect width="69.3" height="12.44" x="70.53" y="331.42" class="cls-1"/><rect width="39.09" height="16.88" x="120.28" y="220.35" class="cls-1"/><path d="M297.74,91.64C297.74,187.92,254,266,200,266s-97.74-78.05-97.74-174.33a303.35,303.35,0,0,1,4.46-52.24H293.28A303.35,303.35,0,0,1,297.74,91.64Z" class="cls-1" transform="translate(-60.17 -39.4)"/><rect width="19.55" height="18.66" x="140.11" y="219.46" class="cls-3"/><path d="M297.74,91.64c0,96.12-43.61,174.07-97.46,174.33V39.4h93A302.44,302.44,0,0,1,297.74,91.64Z" class="cls-3" transform="translate(-60.17 -39.4)"/><rect width="117.28" height="46.2" x="81.47" y="279.88" class="cls-1"/><circle cx="140.22" cy="101.54" r="54.08" class="cls-4"/><path d="M254.47,140.94A54.06,54.06,0,0,1,200.39,195V86.86A54.07,54.07,0,0,1,254.47,140.94Z" class="cls-5" transform="translate(-60.17 -39.4)"/><rect width="58.64" height="46.2" x="140.11" y="279.88" class="cls-3"/></svg>